<svg version="1.1" id="Layer_1" xmlns="http://www.w3.org/2000/svg" xmlns:xlink="http://www.w3.org/1999/xlink" x="0px" y="0px"
	 width="100%" viewBox="0 0 1080 1080" enable-background="new 0 0 1080 1080" xml:space="preserve">
<path fill="#000000" opacity="1.000000" stroke="none" 
	d="
M603.000000,1081.000000 
	C402.023132,1081.000000 201.546280,1081.000000 1.034705,1081.000000 
	C1.034705,721.064697 1.034705,361.129364 1.034705,1.097018 
	C360.893768,1.097018 720.787598,1.097018 1080.840698,1.097018 
	C1080.840698,360.999939 1080.840698,720.999939 1080.840698,1081.000000 
	C921.795593,1081.000000 762.647766,1081.000000 603.000000,1081.000000 
M695.368896,246.701752 
	C695.943359,246.719330 696.517822,246.736908 697.487183,247.114624 
	C697.811218,247.256882 698.135315,247.399139 699.032349,247.950394 
	C724.339417,254.780273 735.944092,270.309570 735.408569,296.004578 
	C735.143921,308.700775 732.643616,321.680267 729.022583,333.899780 
	C723.495972,352.550323 716.368958,370.746948 709.476196,388.967865 
	C697.551514,420.490204 685.291931,451.885895 673.160522,483.329926 
	C663.760254,507.695282 654.295715,532.036011 644.943420,556.419739 
	C636.115662,579.435791 627.482971,602.526794 618.603149,625.522583 
	C611.583313,643.701721 604.243835,661.757263 597.183411,679.921021 
	C589.541748,699.580078 582.059021,719.300903 574.218872,739.745972 
	C573.233704,738.380432 572.654907,737.832947 572.382446,737.161316 
	C569.474609,729.990967 566.542297,722.829163 563.756104,715.611145 
	C554.542725,691.742554 545.328064,667.874146 536.225037,643.963318 
	C526.351318,618.028259 516.616028,592.040588 506.794098,566.085754 
	C499.257904,546.171143 491.644989,526.285583 484.131805,506.362335 
	C476.272522,485.521301 468.557037,464.625885 460.658264,443.799896 
	C452.685394,422.778717 444.500458,401.838013 436.528229,380.816589 
	C429.495209,362.271576 422.662476,343.650726 415.675476,325.088165 
	C410.031128,310.092651 403.986359,295.192444 402.458069,279.052094 
	C401.036469,264.038513 406.049622,252.368301 422.028656,248.590057 
	C434.157745,245.722122 446.711945,244.477783 459.146484,243.172882 
	C463.365936,242.730087 465.303375,241.755325 464.911224,237.446075 
	C464.790924,236.124069 464.894409,234.781784 464.893097,233.448792 
	C464.885773,226.037857 464.885529,226.033279 457.313416,226.033112 
	C394.162506,226.031784 331.011536,226.009232 267.860657,226.051865 
	C255.349182,226.060318 256.159729,223.876678 256.033691,238.331909 
	C256.001251,242.053207 257.887329,243.359848 261.009369,243.802490 
	C283.586151,247.003326 298.980530,260.119965 308.838776,279.820770 
	C315.248169,292.629486 320.479828,306.051727 325.809875,319.370850 
	C334.093750,340.071259 342.043182,360.905884 350.077087,381.705780 
	C358.525024,403.577545 366.847626,425.497864 375.350067,447.348328 
	C377.962952,454.063141 380.987030,460.617950 383.850952,467.638519 
	C383.850952,467.638519 384.039215,467.983978 383.829071,468.751495 
	C384.046356,469.496887 384.263611,470.242310 384.510376,471.520020 
	C385.008362,472.009125 385.506378,472.498199 386.058746,473.771240 
	C389.175446,482.469788 392.089600,491.247314 395.445679,499.852509 
	C406.845184,529.081787 418.424530,558.240906 429.889648,587.444641 
	C439.729797,612.509277 449.546753,637.583130 459.302063,662.680908 
	C469.590729,689.150635 479.793762,715.653748 490.035004,742.141907 
	C498.193878,763.244202 506.329773,784.355408 514.522095,805.444702 
	C519.664673,818.683228 524.936035,831.871704 530.069641,845.113586 
	C534.980103,857.779724 532.218506,854.929626 544.591736,854.992615 
	C546.405579,855.001892 549.182251,852.927490 549.903992,851.159973 
	C556.405457,835.237183 562.581421,819.180786 568.787231,803.138184 
	C579.385864,775.739685 589.923157,748.317383 600.514343,720.915955 
	C606.057861,706.573608 611.681946,692.262390 617.231812,677.922485 
	C622.836121,663.441956 628.347412,648.925354 633.982605,634.456848 
	C642.012573,613.839966 650.176453,593.275208 658.172241,572.645203 
	C664.024963,557.544800 669.605774,542.338989 675.481567,527.247803 
	C680.503113,514.350708 685.886047,501.594391 690.905151,488.696472 
	C698.934631,468.062775 706.724609,447.335938 714.746521,426.699310 
	C723.614685,403.885406 732.569763,381.104797 741.598999,358.354126 
	C749.750610,337.814850 757.719971,317.192902 766.410583,296.881622 
	C771.906067,284.037964 779.881165,272.541901 790.201965,263.012054 
	C799.750427,254.195343 810.653015,247.333847 823.636414,242.944412 
	C824.495239,241.956329 825.354065,240.968246 826.513977,239.185516 
	C826.534241,236.211258 826.957825,233.159607 826.408203,230.294662 
	C826.124268,228.814545 824.112061,227.666000 821.964661,226.257019 
	C773.845154,226.249649 725.725708,226.235245 677.606201,226.244049 
	C671.783630,226.245102 665.961121,226.371353 659.675903,226.245514 
	C659.482544,226.825165 659.289246,227.404816 658.786011,228.868912 
	C658.863647,232.913544 658.941345,236.958160 658.615967,241.274521 
	C659.122498,241.718842 659.628967,242.163177 660.961060,242.765228 
	C662.643860,242.805084 664.326599,242.844940 666.491699,243.583176 
	C671.012146,243.667816 675.532593,243.752441 680.680054,244.226608 
	C683.116272,244.573120 685.552551,244.919617 688.749756,245.580505 
	C689.845093,245.647186 690.940369,245.713852 692.497437,246.103104 
	C693.244995,246.100891 693.992493,246.098694 695.368896,246.701752 
z"/>
<path fill="#E1E1E1" opacity="1.000000" stroke="none" 
	d="
M660.138550,226.439575 
	C665.961121,226.371353 671.783630,226.245102 677.606201,226.244049 
	C725.725708,226.235245 773.845154,226.249649 822.409424,226.715576 
	C823.226929,231.773331 823.599609,236.372559 823.560059,240.990814 
	C818.657043,242.904861 814.096802,244.652084 809.687988,246.721939 
	C795.167786,253.538925 784.057068,264.301605 775.029724,277.330627 
	C764.512024,292.510712 757.908508,309.632599 751.060608,326.605255 
	C746.921082,336.864899 743.132141,347.265533 739.146240,357.587616 
	C729.317261,383.040894 719.459351,408.483002 709.625000,433.934204 
	C702.342407,452.781494 695.120483,471.652405 687.778748,490.476562 
	C685.797485,495.556549 683.305908,500.438538 681.352539,505.528076 
	C678.001099,514.260498 675.037354,523.142639 671.637024,531.855042 
	C667.785461,541.723328 663.453796,551.405212 659.654419,561.292480 
	C654.609192,574.421875 650.061584,587.743408 644.965210,600.852112 
	C638.008240,618.746582 630.552551,636.447754 623.644836,654.360596 
	C615.038269,676.679016 606.869629,699.166016 598.319580,721.506592 
	C593.714966,733.537964 588.641357,745.388916 583.904419,757.370728 
	C580.028015,767.175720 576.413330,777.084045 572.542969,786.891418 
	C568.474487,797.201172 564.160645,807.414185 560.099609,817.726807 
	C555.743591,828.788147 551.696350,839.974121 547.134949,850.948120 
	C546.505066,852.463623 543.784241,853.664490 541.872070,853.952393 
	C539.486206,854.311584 536.462891,855.086060 535.123901,851.509583 
	C533.153320,846.246216 530.904053,841.087708 528.895325,835.837952 
	C523.212097,820.984680 517.707703,806.062134 511.912964,791.252869 
	C505.992249,776.121643 499.692261,761.138733 493.773254,746.006836 
	C486.435455,727.247803 479.342773,708.393005 472.099457,689.596802 
	C465.141541,671.541199 458.148041,653.499207 451.129303,635.467163 
	C446.114960,622.584717 440.990509,609.745117 435.992645,596.856384 
	C430.781647,583.418030 425.708160,569.926270 420.492157,556.489929 
	C415.397797,543.366943 410.134888,530.309143 405.065247,517.176758 
	C400.176971,504.514099 395.603241,491.727448 390.542816,479.135315 
	C388.955322,475.184998 386.238922,471.688293 384.039215,467.983978 
	C384.039215,467.983978 383.850952,467.638519 383.939880,467.017395 
	C383.757324,464.601929 383.804932,462.684143 383.165894,461.032013 
	C375.060394,440.077759 366.893005,419.147217 358.657898,398.243530 
	C355.632843,390.564850 352.209564,383.040375 349.286682,375.324799 
	C345.199615,364.536224 341.622345,353.552521 337.447388,342.799683 
	C330.422272,324.706177 323.472015,306.567078 315.768158,288.759521 
	C310.704865,277.055603 304.544922,265.811157 294.767181,257.061737 
	C285.821625,249.057022 275.472931,243.542175 263.791351,241.455978 
	C258.880554,240.578949 257.732574,239.035645 257.931854,234.619904 
	C258.126526,230.305740 259.183716,227.871292 264.265991,227.880508 
	C328.762909,227.997421 393.260254,228.023056 457.756989,227.858749 
	C464.154755,227.842453 462.801300,231.770340 463.148071,235.473022 
	C463.553131,239.798340 462.132812,241.502625 457.608154,241.170532 
	C443.815308,240.158234 430.482910,242.374985 417.608032,247.462585 
	C404.338470,252.706131 398.722717,264.133118 399.521729,276.662872 
	C400.456360,291.319214 405.651703,305.081879 410.756500,318.709656 
	C417.542023,336.824188 424.926239,354.713715 431.789703,372.799896 
	C439.953888,394.313538 447.742920,415.969421 455.876617,437.494843 
	C461.717590,452.952637 467.974945,468.253021 473.823730,483.707947 
	C477.983032,494.698730 481.580780,505.902527 485.766327,516.882751 
	C493.651306,537.567993 501.904175,558.113220 509.756653,578.810547 
	C513.969360,589.914185 517.451111,601.294739 521.640808,612.407715 
	C532.035400,639.978943 542.720947,667.440491 553.140930,695.002258 
	C558.400940,708.915527 563.233032,722.991089 568.542236,736.884827 
	C569.279663,738.814697 571.430786,740.746765 573.366577,741.425293 
	C574.211426,741.721436 576.787109,739.118835 577.511658,737.387024 
	C582.089844,726.444519 586.473816,715.417053 590.711975,704.337341 
	C593.731140,696.444519 596.258240,688.363220 599.292297,680.476562 
	C605.582397,664.126099 612.157959,647.885376 618.431580,631.528748 
	C622.224792,621.638916 625.509033,611.553284 629.331665,601.675537 
	C631.828491,595.223755 635.132874,589.084473 637.631592,582.633301 
	C642.810791,569.262085 647.556274,555.722778 652.737976,542.352539 
	C657.868652,529.114014 663.505676,516.070801 668.578186,502.810974 
	C675.125183,485.696930 681.127197,468.373474 687.740967,451.286163 
	C694.800537,433.046967 702.432190,415.029663 709.547119,396.811218 
	C712.785950,388.517883 715.364807,379.967590 718.274353,371.544678 
	C723.008484,357.839661 728.067261,344.237854 732.428528,330.415649 
	C736.342346,318.011749 738.203918,305.281433 737.971375,292.114136 
	C737.702271,276.879578 731.877869,264.528656 720.225464,255.354050 
	C714.145447,250.566910 707.225769,245.884903 698.459351,247.541397 
	C698.135315,247.399139 697.811218,247.256882 697.323120,246.611176 
	C696.089600,245.700714 695.020142,245.293701 693.646362,244.850327 
	C692.936340,244.763931 692.530579,244.713882 691.980957,244.391418 
	C690.550110,244.033279 689.263123,243.947540 687.713013,243.824112 
	C687.098450,243.779602 686.747070,243.772781 686.191956,243.451508 
	C679.528931,242.618057 673.070312,242.088837 666.606384,241.636383 
	C666.437378,241.624557 666.209717,242.449890 666.009399,242.884796 
	C664.326599,242.844940 662.643860,242.805084 660.603088,242.399063 
	C659.836426,241.689529 659.427673,241.346161 659.018982,241.002808 
	C658.941345,236.958160 658.863647,232.913544 659.225952,228.394455 
	C659.823425,227.426529 659.980957,226.933044 660.138550,226.439575 
z"/>
<path fill="#A3A3A3" opacity="1.000000" stroke="none" 
	d="
M698.745850,247.745895 
	C707.225769,245.884903 714.145447,250.566910 720.225464,255.354050 
	C731.877869,264.528656 737.702271,276.879578 737.971375,292.114136 
	C738.203918,305.281433 736.342346,318.011749 732.428528,330.415649 
	C728.067261,344.237854 723.008484,357.839661 718.274353,371.544678 
	C715.364807,379.967590 712.785950,388.517883 709.547119,396.811218 
	C702.432190,415.029663 694.800537,433.046967 687.740967,451.286163 
	C681.127197,468.373474 675.125183,485.696930 668.578186,502.810974 
	C663.505676,516.070801 657.868652,529.114014 652.737976,542.352539 
	C647.556274,555.722778 642.810791,569.262085 637.631592,582.633301 
	C635.132874,589.084473 631.828491,595.223755 629.331665,601.675537 
	C625.509033,611.553284 622.224792,621.638916 618.431580,631.528748 
	C612.157959,647.885376 605.582397,664.126099 599.292297,680.476562 
	C596.258240,688.363220 593.731140,696.444519 590.711975,704.337341 
	C586.473816,715.417053 582.089844,726.444519 577.511658,737.387024 
	C576.787109,739.118835 574.211426,741.721436 573.366577,741.425293 
	C571.430786,740.746765 569.279663,738.814697 568.542236,736.884827 
	C563.233032,722.991089 558.400940,708.915527 553.140930,695.002258 
	C542.720947,667.440491 532.035400,639.978943 521.640808,612.407715 
	C517.451111,601.294739 513.969360,589.914185 509.756653,578.810547 
	C501.904175,558.113220 493.651306,537.567993 485.766327,516.882751 
	C481.580780,505.902527 477.983032,494.698730 473.823730,483.707947 
	C467.974945,468.253021 461.717590,452.952637 455.876617,437.494843 
	C447.742920,415.969421 439.953888,394.313538 431.789703,372.799896 
	C424.926239,354.713715 417.542023,336.824188 410.756500,318.709656 
	C405.651703,305.081879 400.456360,291.319214 399.521729,276.662872 
	C398.722717,264.133118 404.338470,252.706131 417.608032,247.462585 
	C430.482910,242.374985 443.815308,240.158234 457.608154,241.170532 
	C462.132812,241.502625 463.553131,239.798340 463.148071,235.473022 
	C462.801300,231.770340 464.154755,227.842453 457.756989,227.858749 
	C393.260254,228.023056 328.762909,227.997421 264.265991,227.880508 
	C259.183716,227.871292 258.126526,230.305740 257.931854,234.619904 
	C257.732574,239.035645 258.880554,240.578949 263.791351,241.455978 
	C275.472931,243.542175 285.821625,249.057022 294.767181,257.061737 
	C304.544922,265.811157 310.704865,277.055603 315.768158,288.759521 
	C323.472015,306.567078 330.422272,324.706177 337.447388,342.799683 
	C341.622345,353.552521 345.199615,364.536224 349.286682,375.324799 
	C352.209564,383.040375 355.632843,390.564850 358.657898,398.243530 
	C366.893005,419.147217 375.060394,440.077759 383.165894,461.032013 
	C383.804932,462.684143 383.757324,464.601929 383.925842,466.821167 
	C380.987030,460.617950 377.962952,454.063141 375.350067,447.348328 
	C366.847626,425.497864 358.525024,403.577545 350.077087,381.705780 
	C342.043182,360.905884 334.093750,340.071259 325.809875,319.370850 
	C320.479828,306.051727 315.248169,292.629486 308.838776,279.820770 
	C298.980530,260.119965 283.586151,247.003326 261.009369,243.802490 
	C257.887329,243.359848 256.001251,242.053207 256.033691,238.331909 
	C256.159729,223.876678 255.349182,226.060318 267.860657,226.051865 
	C331.011536,226.009232 394.162506,226.031784 457.313416,226.033112 
	C464.885529,226.033279 464.885773,226.037857 464.893097,233.448792 
	C464.894409,234.781784 464.790924,236.124069 464.911224,237.446075 
	C465.303375,241.755325 463.365936,242.730087 459.146484,243.172882 
	C446.711945,244.477783 434.157745,245.722122 422.028656,248.590057 
	C406.049622,252.368301 401.036469,264.038513 402.458069,279.052094 
	C403.986359,295.192444 410.031128,310.092651 415.675476,325.088165 
	C422.662476,343.650726 429.495209,362.271576 436.528229,380.816589 
	C444.500458,401.838013 452.685394,422.778717 460.658264,443.799896 
	C468.557037,464.625885 476.272522,485.521301 484.131805,506.362335 
	C491.644989,526.285583 499.257904,546.171143 506.794098,566.085754 
	C516.616028,592.040588 526.351318,618.028259 536.225037,643.963318 
	C545.328064,667.874146 554.542725,691.742554 563.756104,715.611145 
	C566.542297,722.829163 569.474609,729.990967 572.382446,737.161316 
	C572.654907,737.832947 573.233704,738.380432 574.218872,739.745972 
	C582.059021,719.300903 589.541748,699.580078 597.183411,679.921021 
	C604.243835,661.757263 611.583313,643.701721 618.603149,625.522583 
	C627.482971,602.526794 636.115662,579.435791 644.943420,556.419739 
	C654.295715,532.036011 663.760254,507.695282 673.160522,483.329926 
	C685.291931,451.885895 697.551514,420.490204 709.476196,388.967865 
	C716.368958,370.746948 723.495972,352.550323 729.022583,333.899780 
	C732.643616,321.680267 735.143921,308.700775 735.408569,296.004578 
	C735.944092,270.309570 724.339417,254.780273 698.745850,247.745895 
z"/>
<path fill="#A6A6A6" opacity="1.000000" stroke="none" 
	d="
M383.934143,468.367737 
	C386.238922,471.688293 388.955322,475.184998 390.542816,479.135315 
	C395.603241,491.727448 400.176971,504.514099 405.065247,517.176758 
	C410.134888,530.309143 415.397797,543.366943 420.492157,556.489929 
	C425.708160,569.926270 430.781647,583.418030 435.992645,596.856384 
	C440.990509,609.745117 446.114960,622.584717 451.129303,635.467163 
	C458.148041,653.499207 465.141541,671.541199 472.099457,689.596802 
	C479.342773,708.393005 486.435455,727.247803 493.773254,746.006836 
	C499.692261,761.138733 505.992249,776.121643 511.912964,791.252869 
	C517.707703,806.062134 523.212097,820.984680 528.895325,835.837952 
	C530.904053,841.087708 533.153320,846.246216 535.123901,851.509583 
	C536.462891,855.086060 539.486206,854.311584 541.872070,853.952393 
	C543.784241,853.664490 546.505066,852.463623 547.134949,850.948120 
	C551.696350,839.974121 555.743591,828.788147 560.099609,817.726807 
	C564.160645,807.414185 568.474487,797.201172 572.542969,786.891418 
	C576.413330,777.084045 580.028015,767.175720 583.904419,757.370728 
	C588.641357,745.388916 593.714966,733.537964 598.319580,721.506592 
	C606.869629,699.166016 615.038269,676.679016 623.644836,654.360596 
	C630.552551,636.447754 638.008240,618.746582 644.965210,600.852112 
	C650.061584,587.743408 654.609192,574.421875 659.654419,561.292480 
	C663.453796,551.405212 667.785461,541.723328 671.637024,531.855042 
	C675.037354,523.142639 678.001099,514.260498 681.352539,505.528076 
	C683.305908,500.438538 685.797485,495.556549 687.778748,490.476562 
	C695.120483,471.652405 702.342407,452.781494 709.625000,433.934204 
	C719.459351,408.483002 729.317261,383.040894 739.146240,357.587616 
	C743.132141,347.265533 746.921082,336.864899 751.060608,326.605255 
	C757.908508,309.632599 764.512024,292.510712 775.029724,277.330627 
	C784.057068,264.301605 795.167786,253.538925 809.687988,246.721939 
	C814.096802,244.652084 818.657043,242.904861 823.577637,241.008621 
	C824.007385,241.007370 824.042603,241.042831 823.917603,241.282852 
	C823.522522,241.991776 823.252441,242.460678 822.982422,242.929581 
	C810.653015,247.333847 799.750427,254.195343 790.201965,263.012054 
	C779.881165,272.541901 771.906067,284.037964 766.410583,296.881622 
	C757.719971,317.192902 749.750610,337.814850 741.598999,358.354126 
	C732.569763,381.104797 723.614685,403.885406 714.746521,426.699310 
	C706.724609,447.335938 698.934631,468.062775 690.905151,488.696472 
	C685.886047,501.594391 680.503113,514.350708 675.481567,527.247803 
	C669.605774,542.338989 664.024963,557.544800 658.172241,572.645203 
	C650.176453,593.275208 642.012573,613.839966 633.982605,634.456848 
	C628.347412,648.925354 622.836121,663.441956 617.231812,677.922485 
	C611.681946,692.262390 606.057861,706.573608 600.514343,720.915955 
	C589.923157,748.317383 579.385864,775.739685 568.787231,803.138184 
	C562.581421,819.180786 556.405457,835.237183 549.903992,851.159973 
	C549.182251,852.927490 546.405579,855.001892 544.591736,854.992615 
	C532.218506,854.929626 534.980103,857.779724 530.069641,845.113586 
	C524.936035,831.871704 519.664673,818.683228 514.522095,805.444702 
	C506.329773,784.355408 498.193878,763.244202 490.035004,742.141907 
	C479.793762,715.653748 469.590729,689.150635 459.302063,662.680908 
	C449.546753,637.583130 439.729797,612.509277 429.889648,587.444641 
	C418.424530,558.240906 406.845184,529.081787 395.445679,499.852509 
	C392.089600,491.247314 389.175446,482.469788 386.001343,473.102814 
	C385.456268,471.952148 384.968567,471.469910 384.480865,470.987701 
	C384.263611,470.242310 384.046356,469.496887 383.934143,468.367737 
z"/>
<path fill="#A6A6A6" opacity="1.000000" stroke="none" 
	d="
M666.250610,243.233994 
	C666.209717,242.449890 666.437378,241.624557 666.606384,241.636383 
	C673.070312,242.088837 679.528931,242.618057 685.800537,243.484375 
	C683.759644,243.833496 681.906311,243.835297 680.053040,243.837082 
	C675.532593,243.752441 671.012146,243.667816 666.250610,243.233994 
z"/>
<path fill="#A6A6A6" opacity="1.000000" stroke="none" 
	d="
M823.989807,240.989563 
	C823.599609,236.372559 823.226929,231.773331 822.867432,226.770874 
	C824.112061,227.666000 826.124268,228.814545 826.408203,230.294662 
	C826.957825,233.159607 826.534241,236.211258 826.131897,239.654648 
	C825.180725,240.430130 824.611694,240.736481 824.042603,241.042831 
	C824.042603,241.042831 824.007385,241.007370 823.989807,240.989563 
z"/>
<path fill="#A3A3A3" opacity="1.000000" stroke="none" 
	d="
M680.366577,244.031845 
	C681.906311,243.835297 683.759644,243.833496 686.004272,243.798828 
	C686.747070,243.772781 687.098450,243.779602 687.719849,244.059204 
	C688.002625,244.643387 688.002258,244.954758 687.988770,245.266129 
	C685.552551,244.919617 683.116272,244.573120 680.366577,244.031845 
z"/>
<path fill="#A6A6A6" opacity="1.000000" stroke="none" 
	d="
M688.369263,245.423309 
	C688.002258,244.954758 688.002625,244.643387 687.982971,244.096893 
	C689.263123,243.947540 690.550110,244.033279 691.949341,244.670654 
	C692.052979,245.408386 692.044312,245.594452 692.035706,245.780518 
	C690.940369,245.713852 689.845093,245.647186 688.369263,245.423309 
z"/>
<path fill="#A3A3A3" opacity="1.000000" stroke="none" 
	d="
M823.917603,241.282852 
	C824.611694,240.736481 825.180725,240.430130 825.981384,240.051971 
	C825.354065,240.968246 824.495239,241.956329 823.309448,242.936996 
	C823.252441,242.460678 823.522522,241.991776 823.917603,241.282852 
z"/>
<path fill="#A6A6A6" opacity="1.000000" stroke="none" 
	d="
M693.950684,244.886658 
	C695.020142,245.293701 696.089600,245.700714 697.125671,246.431122 
	C696.517822,246.736908 695.943359,246.719330 694.922852,246.273132 
	C694.301392,245.525223 694.126038,245.205933 693.950684,244.886658 
z"/>
<path fill="#A3A3A3" opacity="1.000000" stroke="none" 
	d="
M693.646362,244.850311 
	C694.126038,245.205933 694.301392,245.525223 694.608398,245.970490 
	C693.992493,246.098694 693.244995,246.100891 692.266602,245.941803 
	C692.044312,245.594452 692.052979,245.408386 692.093262,244.943069 
	C692.530579,244.713882 692.936340,244.763931 693.646362,244.850311 
z"/>
<path fill="#A3A3A3" opacity="1.000000" stroke="none" 
	d="
M659.907227,226.342545 
	C659.980957,226.933044 659.823425,227.426529 659.380859,227.952240 
	C659.289246,227.404816 659.482544,226.825165 659.907227,226.342545 
z"/>
<path fill="#A3A3A3" opacity="1.000000" stroke="none" 
	d="
M658.817505,241.138672 
	C659.427673,241.346161 659.836426,241.689529 660.190308,242.320190 
	C659.628967,242.163177 659.122498,241.718842 658.817505,241.138672 
z"/>
<path fill="#A3A3A3" opacity="1.000000" stroke="none" 
	d="
M384.495605,471.253845 
	C384.968567,471.469910 385.456268,471.952148 385.974182,472.710846 
	C385.506378,472.498199 385.008362,472.009125 384.495605,471.253845 
z"/>
</svg>